<mxfile host="app.diagrams.net" agent="Mozilla/5.0 (Windows NT 10.0; Win64; x64) AppleWebKit/537.36 (KHTML, like Gecko) Chrome/129.0.0.0 Safari/537.36" version="24.7.17">
  <diagram name="Page-1" id="m5ZK1p9ipSLJqWiMD7_q">
    <mxGraphModel grid="1" page="1" gridSize="10" guides="1" tooltips="1" connect="1" arrows="1" fold="1" pageScale="1" pageWidth="850" pageHeight="1100" math="0" shadow="0">
      <root>
        <mxCell id="0" />
        <mxCell id="1" parent="0" />
        <mxCell id="ggHeoo94j5PtSEVtFvvY-5" value="user/farmer" style="html=1;dashed=0;whiteSpace=wrap;shape=mxgraph.dfd.externalEntity" vertex="1" parent="1">
          <mxGeometry x="50" y="310" width="100" height="100" as="geometry" />
        </mxCell>
        <mxCell id="ggHeoo94j5PtSEVtFvvY-6" value="Id" style="autosize=1;part=1;resizable=0;strokeColor=inherit;fillColor=inherit;gradientColor=inherit;" vertex="1" parent="ggHeoo94j5PtSEVtFvvY-5">
          <mxGeometry width="20" height="20" relative="1" as="geometry">
            <mxPoint x="15" y="15" as="offset" />
          </mxGeometry>
        </mxCell>
        <mxCell id="ggHeoo94j5PtSEVtFvvY-7" value="user/farmer" style="html=1;dashed=0;whiteSpace=wrap;shape=mxgraph.dfd.externalEntity" vertex="1" parent="1">
          <mxGeometry x="50" y="50" width="100" height="100" as="geometry" />
        </mxCell>
        <mxCell id="ggHeoo94j5PtSEVtFvvY-8" value="Id" style="autosize=1;part=1;resizable=0;strokeColor=inherit;fillColor=inherit;gradientColor=inherit;" vertex="1" parent="ggHeoo94j5PtSEVtFvvY-7">
          <mxGeometry width="20" height="20" relative="1" as="geometry">
            <mxPoint x="15" y="15" as="offset" />
          </mxGeometry>
        </mxCell>
        <mxCell id="ggHeoo94j5PtSEVtFvvY-9" value="" style="endArrow=classic;html=1;rounded=0;entryX=0.038;entryY=0.4;entryDx=0;entryDy=0;entryPerimeter=0;exitX=0;exitY=0;exitDx=100;exitDy=32.5;exitPerimeter=0;" edge="1" parent="1" source="ggHeoo94j5PtSEVtFvvY-7" target="ggHeoo94j5PtSEVtFvvY-22">
          <mxGeometry width="50" height="50" relative="1" as="geometry">
            <mxPoint x="200" y="90" as="sourcePoint" />
            <mxPoint x="250" y="40" as="targetPoint" />
          </mxGeometry>
        </mxCell>
        <mxCell id="ggHeoo94j5PtSEVtFvvY-24" value="text description" style="edgeLabel;html=1;align=center;verticalAlign=middle;resizable=0;points=[];" connectable="0" vertex="1" parent="ggHeoo94j5PtSEVtFvvY-9">
          <mxGeometry x="-0.3727" y="2" relative="1" as="geometry">
            <mxPoint as="offset" />
          </mxGeometry>
        </mxCell>
        <mxCell id="ggHeoo94j5PtSEVtFvvY-10" value="" style="endArrow=classic;html=1;rounded=0;entryX=0;entryY=1;entryDx=0;entryDy=0;exitX=1.02;exitY=0.69;exitDx=0;exitDy=0;exitPerimeter=0;" edge="1" parent="1" source="ggHeoo94j5PtSEVtFvvY-7" target="ggHeoo94j5PtSEVtFvvY-22">
          <mxGeometry width="50" height="50" relative="1" as="geometry">
            <mxPoint x="230" y="180" as="sourcePoint" />
            <mxPoint x="280" y="130" as="targetPoint" />
          </mxGeometry>
        </mxCell>
        <mxCell id="ggHeoo94j5PtSEVtFvvY-25" value="image input" style="edgeLabel;html=1;align=center;verticalAlign=middle;resizable=0;points=[];" connectable="0" vertex="1" parent="ggHeoo94j5PtSEVtFvvY-10">
          <mxGeometry x="-0.0984" y="3" relative="1" as="geometry">
            <mxPoint as="offset" />
          </mxGeometry>
        </mxCell>
        <mxCell id="ggHeoo94j5PtSEVtFvvY-11" value="" style="endArrow=classic;html=1;rounded=0;entryX=0;entryY=0;entryDx=0;entryDy=0;exitX=0.962;exitY=0.771;exitDx=0;exitDy=0;exitPerimeter=0;" edge="1" parent="1" source="ggHeoo94j5PtSEVtFvvY-22" target="ggHeoo94j5PtSEVtFvvY-21">
          <mxGeometry width="50" height="50" relative="1" as="geometry">
            <mxPoint x="470" y="180" as="sourcePoint" />
            <mxPoint x="520" y="130" as="targetPoint" />
          </mxGeometry>
        </mxCell>
        <mxCell id="ggHeoo94j5PtSEVtFvvY-26" value="sending requests" style="edgeLabel;html=1;align=center;verticalAlign=middle;resizable=0;points=[];" connectable="0" vertex="1" parent="ggHeoo94j5PtSEVtFvvY-11">
          <mxGeometry x="-0.3202" y="2" relative="1" as="geometry">
            <mxPoint as="offset" />
          </mxGeometry>
        </mxCell>
        <mxCell id="ggHeoo94j5PtSEVtFvvY-12" value="" style="endArrow=classic;html=1;rounded=0;entryX=0.99;entryY=0.438;entryDx=0;entryDy=0;entryPerimeter=0;exitX=0.057;exitY=0.629;exitDx=0;exitDy=0;exitPerimeter=0;" edge="1" parent="1" source="ggHeoo94j5PtSEVtFvvY-19" target="ggHeoo94j5PtSEVtFvvY-23">
          <mxGeometry width="50" height="50" relative="1" as="geometry">
            <mxPoint x="390" y="447.5" as="sourcePoint" />
            <mxPoint x="440" y="397.5" as="targetPoint" />
          </mxGeometry>
        </mxCell>
        <mxCell id="ggHeoo94j5PtSEVtFvvY-30" value="searching and compiling results" style="edgeLabel;html=1;align=center;verticalAlign=middle;resizable=0;points=[];" connectable="0" vertex="1" parent="ggHeoo94j5PtSEVtFvvY-12">
          <mxGeometry x="0.091" y="1" relative="1" as="geometry">
            <mxPoint as="offset" />
          </mxGeometry>
        </mxCell>
        <mxCell id="ggHeoo94j5PtSEVtFvvY-13" value="" style="endArrow=classic;html=1;rounded=0;entryX=0;entryY=1;entryDx=0;entryDy=0;exitX=1;exitY=0.5;exitDx=0;exitDy=0;" edge="1" parent="1" source="ggHeoo94j5PtSEVtFvvY-20" target="ggHeoo94j5PtSEVtFvvY-21">
          <mxGeometry width="50" height="50" relative="1" as="geometry">
            <mxPoint x="450" y="300" as="sourcePoint" />
            <mxPoint x="360" y="390" as="targetPoint" />
          </mxGeometry>
        </mxCell>
        <mxCell id="ggHeoo94j5PtSEVtFvvY-29" value="validation failure" style="edgeLabel;html=1;align=center;verticalAlign=middle;resizable=0;points=[];" connectable="0" vertex="1" parent="ggHeoo94j5PtSEVtFvvY-13">
          <mxGeometry x="0.022" y="-1" relative="1" as="geometry">
            <mxPoint as="offset" />
          </mxGeometry>
        </mxCell>
        <mxCell id="ggHeoo94j5PtSEVtFvvY-14" value="" style="endArrow=classic;html=1;rounded=0;entryX=1;entryY=0.333;entryDx=0;entryDy=0;entryPerimeter=0;exitX=0.5;exitY=0;exitDx=0;exitDy=0;" edge="1" parent="1" source="ggHeoo94j5PtSEVtFvvY-21" target="ggHeoo94j5PtSEVtFvvY-22">
          <mxGeometry width="50" height="50" relative="1" as="geometry">
            <mxPoint x="395" y="475" as="sourcePoint" />
            <mxPoint x="445" y="425" as="targetPoint" />
          </mxGeometry>
        </mxCell>
        <mxCell id="ggHeoo94j5PtSEVtFvvY-28" value="failure to make request" style="edgeLabel;html=1;align=center;verticalAlign=middle;resizable=0;points=[];" connectable="0" vertex="1" parent="ggHeoo94j5PtSEVtFvvY-14">
          <mxGeometry x="0.2278" y="-2" relative="1" as="geometry">
            <mxPoint as="offset" />
          </mxGeometry>
        </mxCell>
        <mxCell id="ggHeoo94j5PtSEVtFvvY-15" value="" style="endArrow=classic;html=1;rounded=0;entryX=0.914;entryY=0.238;entryDx=0;entryDy=0;exitX=-0.01;exitY=0.61;exitDx=0;exitDy=0;exitPerimeter=0;entryPerimeter=0;" edge="1" parent="1" source="ggHeoo94j5PtSEVtFvvY-21" target="ggHeoo94j5PtSEVtFvvY-20">
          <mxGeometry width="50" height="50" relative="1" as="geometry">
            <mxPoint x="460" y="340" as="sourcePoint" />
            <mxPoint x="510" y="290" as="targetPoint" />
          </mxGeometry>
        </mxCell>
        <mxCell id="ggHeoo94j5PtSEVtFvvY-27" value="validating request&amp;nbsp;" style="edgeLabel;html=1;align=center;verticalAlign=middle;resizable=0;points=[];" connectable="0" vertex="1" parent="ggHeoo94j5PtSEVtFvvY-15">
          <mxGeometry x="0.2103" y="-3" relative="1" as="geometry">
            <mxPoint as="offset" />
          </mxGeometry>
        </mxCell>
        <mxCell id="ggHeoo94j5PtSEVtFvvY-16" value="" style="endArrow=classic;html=1;rounded=0;exitX=0.971;exitY=0.743;exitDx=0;exitDy=0;exitPerimeter=0;" edge="1" parent="1" source="ggHeoo94j5PtSEVtFvvY-20" target="ggHeoo94j5PtSEVtFvvY-19">
          <mxGeometry width="50" height="50" relative="1" as="geometry">
            <mxPoint x="470" y="350" as="sourcePoint" />
            <mxPoint x="520.3768939877064" y="299.62310601229365" as="targetPoint" />
          </mxGeometry>
        </mxCell>
        <mxCell id="ggHeoo94j5PtSEVtFvvY-31" value="processing" style="edgeLabel;html=1;align=center;verticalAlign=middle;resizable=0;points=[];" connectable="0" vertex="1" parent="ggHeoo94j5PtSEVtFvvY-16">
          <mxGeometry x="-0.1882" y="3" relative="1" as="geometry">
            <mxPoint as="offset" />
          </mxGeometry>
        </mxCell>
        <mxCell id="ggHeoo94j5PtSEVtFvvY-19" value="confirmation" style="shape=ellipse;html=1;dashed=0;whiteSpace=wrap;aspect=fixed;perimeter=ellipsePerimeter;" vertex="1" parent="1">
          <mxGeometry x="710" y="295" width="105" height="105" as="geometry" />
        </mxCell>
        <mxCell id="ggHeoo94j5PtSEVtFvvY-20" value="validation" style="shape=ellipse;html=1;dashed=0;whiteSpace=wrap;aspect=fixed;perimeter=ellipsePerimeter;" vertex="1" parent="1">
          <mxGeometry x="270" y="200" width="105" height="105" as="geometry" />
        </mxCell>
        <mxCell id="ggHeoo94j5PtSEVtFvvY-21" value="Server Requests" style="shape=ellipse;html=1;dashed=0;whiteSpace=wrap;aspect=fixed;perimeter=ellipsePerimeter;" vertex="1" parent="1">
          <mxGeometry x="630" y="100" width="105" height="105" as="geometry" />
        </mxCell>
        <mxCell id="ggHeoo94j5PtSEVtFvvY-22" value="data input" style="shape=ellipse;html=1;dashed=0;whiteSpace=wrap;aspect=fixed;perimeter=ellipsePerimeter;" vertex="1" parent="1">
          <mxGeometry x="340" y="55" width="105" height="105" as="geometry" />
        </mxCell>
        <mxCell id="ggHeoo94j5PtSEVtFvvY-23" value="feedback" style="shape=ellipse;html=1;dashed=0;whiteSpace=wrap;aspect=fixed;perimeter=ellipsePerimeter;" vertex="1" parent="1">
          <mxGeometry x="320" y="390" width="105" height="105" as="geometry" />
        </mxCell>
        <mxCell id="ggHeoo94j5PtSEVtFvvY-32" value="" style="endArrow=classic;html=1;rounded=0;entryX=1;entryY=1;entryDx=0;entryDy=0;entryPerimeter=0;" edge="1" parent="1" source="ggHeoo94j5PtSEVtFvvY-23" target="ggHeoo94j5PtSEVtFvvY-5">
          <mxGeometry width="50" height="50" relative="1" as="geometry">
            <mxPoint x="400" y="280" as="sourcePoint" />
            <mxPoint x="450" y="230" as="targetPoint" />
          </mxGeometry>
        </mxCell>
        <mxCell id="ggHeoo94j5PtSEVtFvvY-33" value="return of feedback" style="edgeLabel;html=1;align=center;verticalAlign=middle;resizable=0;points=[];" connectable="0" vertex="1" parent="ggHeoo94j5PtSEVtFvvY-32">
          <mxGeometry x="0.0864" y="-1" relative="1" as="geometry">
            <mxPoint x="1" as="offset" />
          </mxGeometry>
        </mxCell>
      </root>
    </mxGraphModel>
  </diagram>
</mxfile>
